<svg version="1.1" width="84" height="78" viewBox="8.577 0 84 78" xmlns="http://www.w3.org/2000/svg" xmlns:xlink="http://www.w3.org/1999/xlink"><g xmlns="http://www.w3.org/2000/svg" id="obj_1"><g id="obj_4" transform="matrix(1,0,0,1,8.577,0)" opacity="1" display="inline"><path d="M 0 39.188 C 0 17.545 18.848 0 42.098 0 C 65.349 0 84.197 17.545 84.197 39.188 C 84.197 60.831 65.349 78.376 42.098 78.376 C 18.848 78.376 0 60.831 0 39.188 Z " fill-opacity="1" fill="#d4007f" stroke="none" stroke-width="1" stroke-linecap="square" stroke-linejoin="miter"/><defs/></g><g id="obj_5" transform="matrix(1,0,0,1,23.562,15.472)" opacity="1" display="inline"><g id="obj_6" transform="matrix(1,0,0,1,20.92,11.979)" opacity="1" display="inline"><path d="M 9.292 0 C 7.128 0 7.255 1.035 6.11 1.035 C 5.015 1.035 5.321 0 3.106 0 C 0.891 0 0 1.087 0 2.407 C 0 3.933 3.768 9.884 6.212 9.884 C 8.656 9.884 12.423 4.218 12.423 2.407 C 12.398 1.087 11.456 0 9.292 0 L 9.292 0 Z " fill-opacity="1" fill="#ffffff" stroke="none" stroke-width="1" stroke-linecap="square" stroke-linejoin="miter"/><defs/></g><g id="obj_7" transform="matrix(1,0,0,1,0,0)" opacity="1" display="inline"><path d="M 53.1753 15.498 C 52.3603 13.454 49.5603 12.186 45.1562 11.824 C 48.5923 8.176 47.6763 3.079 46.5302 0.569 C 46.3772 0.233 46.0472 0 45.6652 0 L 45.6652 0 C 45.2832 0 44.9522 0.233 44.7992 0.595 C 44.7742 0.647 42.3042 6.339 37.5442 6.339 C 34.9222 6.339 33.6492 6.055 32.2742 5.718 C 30.8992 5.408 29.4741 5.071 26.6991 5.071 C 23.9241 5.071 22.4981 5.408 21.1241 5.718 C 19.7741 6.029 18.4761 6.339 15.8541 6.339 C 11.119 6.339 8.624 0.673 8.599 0.595 C 8.446 0.259 8.115 0.026 7.733 0.026 L 7.733 0.026 C 7.351 0.026 7.02 0.233 6.868 0.595 C 5.722 3.105 4.831 8.202 8.242 11.85 C 3.838 12.186 1.038 13.48 0.223 15.524 C -0.311 16.895 0.121 18.422 1.445 19.716 C 2.845 21.087 4.78 21.76 7.173 21.76 C 8.548 21.76 9.795 21.527 10.686 21.32 C 10.712 24.45 11.373 32.057 17.0511 34.722 C 16.6181 38.318 17.3311 41.294 19.0621 43.364 C 20.7671 45.408 23.4151 46.468 26.6731 46.468 C 29.9322 46.468 32.5802 45.382 34.2852 43.364 C 36.0422 41.294 36.7292 38.318 36.2962 34.722 C 41.9732 32.057 42.6352 24.476 42.6612 21.32 C 43.5522 21.527 44.7992 21.76 46.1742 21.76 C 48.5923 21.76 50.5023 21.061 51.9023 19.716 C 53.2763 18.396 53.7093 16.87 53.1753 15.498 L 53.1753 15.498 Z M 50.6293 18.293 C 49.6113 19.302 48.1093 19.819 46.2252 19.819 C 44.0102 19.819 42.0752 19.12 42.0502 19.095 C 41.7442 18.965 41.3882 19.017 41.1332 19.224 C 40.8792 19.431 40.7262 19.741 40.7512 20.078 C 40.7512 20.181 41.4392 30.789 34.9472 33.17 C 34.5142 33.325 34.2602 33.765 34.3362 34.23 C 34.8712 37.594 34.3362 40.311 32.8602 42.07 C 31.5102 43.674 29.3971 44.502 26.6991 44.502 C 24.0001 44.502 21.8871 43.648 20.5381 42.07 C 19.0361 40.285 18.5271 37.568 19.0621 34.23 C 19.1381 33.765 18.8831 33.325 18.4511 33.17 C 11.959 30.789 12.6461 20.181 12.6461 20.078 C 12.6721 19.741 12.5191 19.431 12.2651 19.224 C 12.0861 19.095 11.883 19.017 11.679 19.017 C 11.577 19.017 11.45 19.043 11.348 19.069 C 11.323 19.069 9.388 19.793 7.173 19.793 C 5.289 19.793 3.787 19.276 2.769 18.267 C 2.336 17.853 1.674 17.025 2.005 16.223 C 2.489 14.981 5.085 13.661 10.864 13.661 C 11.297 13.661 11.679 13.377 11.781 12.963 C 11.883 12.549 11.73 12.109 11.348 11.876 C 7.428 9.496 7.478 5.718 7.962 3.39 C 9.311 5.434 11.908 8.28 15.8541 8.28 C 18.7051 8.28 20.1561 7.943 21.5311 7.607 C 22.8551 7.296 24.1281 7.012 26.6731 7.012 C 29.2191 7.012 30.4922 7.296 31.8162 7.607 C 33.2162 7.943 34.6672 8.28 37.4932 8.28 C 41.4392 8.28 44.0352 5.434 45.3852 3.39 C 45.8682 5.692 45.9192 9.496 41.9992 11.876 C 41.6422 12.109 41.4642 12.549 41.5662 12.963 C 41.6682 13.377 42.0502 13.661 42.4832 13.661 C 48.2613 13.661 50.8583 14.981 51.3423 16.223 C 51.7243 17.051 51.0363 17.879 50.6293 18.293 L 50.6293 18.293 Z " fill-opacity="1" fill="#ffffff" stroke="none" stroke-width="1" stroke-linecap="square" stroke-linejoin="miter"/><defs/></g><g id="obj_8" transform="matrix(1,0,0,1,16.694,20.957)" opacity="1" display="inline"><path d="M 0 2.148 C 0 0.962 0.946 0 2.113 0 C 3.28 0 4.226 0.962 4.226 2.148 C 4.226 3.334 3.28 4.295 2.113 4.295 C 0.946 4.295 0 3.334 0 2.148 Z " fill-opacity="1" fill="#ffffff" stroke="none" stroke-width="1" stroke-linecap="square" stroke-linejoin="miter"/><defs/></g><g id="obj_9" transform="matrix(1,0,0,1,32.885,20.957)" opacity="1" display="inline"><path d="M 0 2.148 C 0 0.962 0.946 0 2.113 0 C 3.28 0 4.226 0.962 4.226 2.148 C 4.226 3.334 3.28 4.295 2.113 4.295 C 0.946 4.295 0 3.334 0 2.148 Z " fill-opacity="1" fill="#ffffff" stroke="none" stroke-width="1" stroke-linecap="square" stroke-linejoin="miter"/><defs/></g><g id="obj_10" transform="matrix(1,0,0,1,29.27,39.483)" opacity="1" display="inline"><path d="M 0 1.035 C 0 0.463 0.456 0 1.018 0 C 1.581 0 2.037 0.463 2.037 1.035 C 2.037 1.606 1.581 2.07 1.018 2.07 C 0.456 2.07 0 1.606 0 1.035 Z " fill-opacity="1" fill="#ffffff" stroke="none" stroke-width="1" stroke-linecap="square" stroke-linejoin="miter"/><defs/></g><g id="obj_11" transform="matrix(1,0,0,1,23.008,39.483)" opacity="1" display="inline"><path d="M 0 1.035 C 0 0.463 0.4552 0 1.0185 0 C 1.5808 0 2.037 0.463 2.037 1.035 C 2.037 1.606 1.5808 2.07 1.0185 2.07 C 0.4552 2.07 0 1.606 0 1.035 Z " fill-opacity="1" fill="#ffffff" stroke="none" stroke-width="1" stroke-linecap="square" stroke-linejoin="miter"/><defs/></g></g></g></svg>