<?xml version="1.0" encoding="UTF-8" standalone="no"?>
<svg
   xmlns:dc="http://purl.org/dc/elements/1.1/"
   xmlns:cc="http://creativecommons.org/ns#"
   xmlns:rdf="http://www.w3.org/1999/02/22-rdf-syntax-ns#"
   xmlns:svg="http://www.w3.org/2000/svg"
   xmlns="http://www.w3.org/2000/svg"
   id="svg2"
   xml:space="preserve"
   viewBox="0 0 80 75"
   height="75"
   width="80"
   y="0px"
   x="0px"
   version="1.1"><metadata
     id="metadata26"><rdf:RDF><cc:Work
         rdf:about=""><dc:format>image/svg+xml</dc:format><dc:type
           rdf:resource="http://purl.org/dc/dcmitype/StillImage" /><dc:title></dc:title></cc:Work></rdf:RDF></metadata><defs
     id="defs24" /><g
     transform="translate(0,25)"
     id="Layer_2" /><g
     id="Layer_1"
     transform="matrix(2.7501587,0,0,2.6091249,-27.934968,-27.047125)"><g
       id="g5016"><circle
         id="circle5018"
         r="14.181"
         cy="25"
         cx="25"
         style="fill:#ee7219" /></g><path
       id="path5020"
       d="m 19.252,35.673 0,-2.568 c 0,-0.207 0.168,-0.375 0.375,-0.375 0.207,0 0.375,0.168 0.375,0.375 l 0,1.471 0.608,-0.237 0.628,0.241 0,-1.474 c 0,-0.207 0.168,-0.375 0.375,-0.375 0.207,0 0.375,0.168 0.375,0.375 l 0,2.565 -1.376,-0.528 -1.36,0.53 z"
       style="fill:#ffffff" /><g
       id="g5022"><path
         id="path5024"
         d="m 31.133,33.386 0,0 -12.279,-0.01 c -0.1,0 -0.195,-0.04 -0.266,-0.11 C 18.518,33.195 18.479,33.1 18.479,33 l 0.014,-16.012 c 0,-0.207 0.168,-0.375 0.375,-0.375 l 0,0 12.279,0.01 c 0.1,0 0.195,0.04 0.266,0.11 0.07,0.071 0.109,0.166 0.109,0.266 l -0.014,16.012 c 0,0.207 -0.168,0.375 -0.375,0.375 z m -11.904,-0.76 11.529,0.009 0.014,-15.262 -11.529,-0.009 -0.014,15.262 z"
         style="fill:#ffffff" /></g><g
       id="g5026"><path
         id="path5028"
         d="m 24.532,24.589 c 0,0.388 0.477,0.947 0.477,0.947 0,0 0.476,-0.56 0.476,-0.947 -10e-4,-0.39 -0.953,-0.39 -0.953,0 z"
         style="fill:#ffffff" /><path
         id="path5030"
         d="m 24.735,23.491 c 0,-0.926 -0.753,-1.679 -1.679,-1.679 -0.926,0 -1.68,0.753 -1.68,1.679 0,0.926 0.754,1.679 1.68,1.679 0.926,0 1.679,-0.753 1.679,-1.679 z m -2.608,0 c 0,-0.512 0.417,-0.929 0.93,-0.929 0.512,0 0.929,0.417 0.929,0.929 0,0.512 -0.417,0.929 -0.929,0.929 -0.513,0 -0.93,-0.417 -0.93,-0.929 z"
         style="fill:#ffffff" /><path
         id="path5032"
         d="m 26.981,25.17 c 0.925,0 1.678,-0.753 1.678,-1.679 0,-0.926 -0.753,-1.679 -1.678,-1.679 -0.926,0 -1.679,0.753 -1.679,1.679 0,0.926 0.754,1.679 1.679,1.679 z m 0,-2.608 c 0.512,0 0.928,0.417 0.928,0.929 0,0.512 -0.416,0.929 -0.928,0.929 -0.512,0 -0.929,-0.417 -0.929,-0.929 0,-0.512 0.418,-0.929 0.929,-0.929 z"
         style="fill:#ffffff" /><path
         id="path5034"
         d="m 29.601,24.38 c 0.139,-0.387 0.234,-0.789 0.234,-1.214 0,-1.062 -0.819,-2.608 -1.555,-3.331 -0.106,-0.106 -0.268,-0.136 -0.407,-0.079 -2.064,0.861 -3.955,0.867 -5.639,0.012 -0.136,-0.07 -0.299,-0.049 -0.414,0.05 -0.934,0.801 -1.638,2.241 -1.638,3.348 0,0.419 0.094,0.816 0.229,1.199 -0.367,0.516 -1.107,1.81 -0.505,3.21 0.317,0.736 0.939,1.432 1.707,1.908 0.543,0.337 1.073,0.515 1.496,0.515 0.156,0 0.296,-0.028 0.418,-0.078 0.458,0.224 0.957,0.353 1.481,0.353 0.523,0 1.022,-0.128 1.479,-0.352 0.129,0.047 0.265,0.076 0.404,0.076 0.305,0 0.618,-0.093 0.861,-0.19 0.77,-0.308 1.844,-1.076 2.339,-2.231 0.599,-1.391 -0.121,-2.672 -0.49,-3.196 z m -7.469,-3.828 c 1.754,0.808 3.701,0.806 5.787,-0.005 0.571,0.663 1.166,1.855 1.166,2.62 0,1.882 -1.828,3.413 -4.076,3.413 -2.248,0 -4.076,-1.531 -4.076,-3.413 0,-0.813 0.523,-1.934 1.199,-2.615 z m -0.123,8.294 c -0.641,-0.397 -1.155,-0.969 -1.413,-1.567 -0.354,-0.822 -0.075,-1.613 0.203,-2.119 0.09,0.142 0.179,0.283 0.287,0.414 l -0.007,0 c 0,1.379 0.508,2.609 1.302,3.469 -0.117,-0.055 -0.238,-0.114 -0.372,-0.197 z m -0.117,-2.528 c 0.844,0.622 1.924,1.011 3.117,1.011 1.193,0 2.273,-0.39 3.117,-1.012 -0.281,1.823 -1.57,3.205 -3.117,3.205 -1.541,0 -2.827,-1.369 -3.117,-3.204 z m 7.511,0.961 c -0.345,0.805 -1.087,1.418 -1.736,1.732 0.775,-0.859 1.27,-2.077 1.27,-3.438 l 0,-0.005 c 0.104,-0.125 0.188,-0.261 0.274,-0.396 0.274,0.506 0.544,1.291 0.192,2.107 z"
         style="fill:#ffffff" /></g></g></svg>