<svg version="1.1" width="80" height="73" viewBox="57.353 16.765 80 73" xmlns="http://www.w3.org/2000/svg" xmlns:xlink="http://www.w3.org/1999/xlink"><g xmlns="http://www.w3.org/2000/svg" id="obj_1"><g id="obj_8" transform="matrix(1,0,0,1,57.353,16.765)" opacity="1" display="inline"><g id="obj_4" transform="matrix(1,0,0,1,0,0)" opacity="1" display="inline"><path d="M 0 36.688 C 0 16.426 17.909 0 40 0 C 62.091 0 80 16.426 80 36.688 C 80 56.951 62.091 73.376 40 73.376 C 17.909 73.376 0 56.951 0 36.688 Z " fill-opacity="1" fill="#64af59" stroke="none" stroke-width="1" stroke-linecap="square" stroke-linejoin="miter"/><defs/></g><g id="obj_5" transform="matrix(1,0,0,1,10.106,13.609)" opacity="1" display="inline"><g id="obj_6" transform="matrix(1,0,0,1,0,0)" opacity="1" display="inline"><path d="M 39.6537 43.026 L 31.9807 43.026 C 32.7147 41.1641 33.1377 39.1971 33.1377 37.1792 C 33.1377 35.1612 32.7427 33.2463 32.0377 31.4613 C 32.7147 29.7793 36.6637 21.0085 46.6777 21.9925 C 46.3397 27.7614 38.7517 30.1933 34.1537 30.7373 C 33.5607 30.8143 33.1657 31.2803 33.2507 31.8233 C 33.3067 32.3153 33.7867 32.6773 34.2947 32.6773 C 34.3507 32.6773 34.3787 32.6773 34.4357 32.6773 C 39.9647 32.0303 49.2168 28.8484 48.8218 21.1125 C 48.7938 20.6465 48.4268 20.2845 47.9477 20.2066 C 37.9897 18.7066 32.8837 25.5364 30.9377 29.1074 C 30.0347 27.6064 28.8777 26.2354 27.5527 25.0454 C 27.4957 24.9934 27.4677 24.9674 27.4117 24.9154 C 27.0727 24.6315 26.7347 24.3465 26.3677 24.0615 C 25.9167 23.6475 25.4927 23.2085 25.1267 22.7425 C 25.2677 13.2987 32.4607 5.8219 35.6487 2.9759 C 35.9017 6.7788 35.4227 15.6277 26.6777 20.7765 C 26.1987 21.0605 26.0287 21.6555 26.3677 22.1215 C 26.6777 22.5615 27.3267 22.7165 27.8347 22.4065 C 40.3307 15.0837 37.5667 0.932 37.5387 0.777 C 37.5387 0.777 37.5387 0.751 37.5097 0.751 C 37.4817 0.595 37.4257 0.466 37.3127 0.337 C 37.2847 0.311 37.2277 0.285 37.1997 0.259 C 37.1717 0.233 37.1437 0.207 37.1147 0.181 C 36.9457 0.052 36.7487 0 36.5227 0 L 36.4947 0 C 27.4957 0 20.1896 6.7269 20.1896 14.9807 C 20.1896 17.3086 20.7826 19.5596 21.8827 21.5785 C 19.7106 20.7505 17.3126 20.2845 14.8016 20.2845 C 9.0476 20.2845 3.7436 22.6905 0.2176 26.8564 C 0.0206 27.0894 -0.0354 27.3994 0.0206 27.6844 C 0.1056 27.9684 0.3026 28.2014 0.5846 28.3304 C 1.1766 28.5894 14.8866 34.5662 25.7467 28.9774 C 26.2547 28.7194 26.4527 28.1244 26.1417 27.6584 C 25.8597 27.1924 25.2107 27.0114 24.7037 27.2964 C 17.9046 30.7883 9.5266 29.1584 4.9286 27.7874 C 8.1726 26.9334 16.8046 25.0704 26.3677 26.6754 C 29.3017 29.3913 31.1347 33.1173 31.1347 37.2312 C 31.1347 39.1971 30.7397 41.1121 29.9217 42.897 C 29.8937 42.949 29.8937 43.026 29.8937 43.078 L 18.9486 43.078 C 18.3566 43.078 17.8766 43.518 17.8766 44.061 C 17.8766 44.605 18.3566 45.045 18.9486 45.045 L 39.7947 45.045 C 40.3877 45.045 40.8667 44.605 40.8667 44.061 C 40.8667 43.518 40.2467 43.026 39.6537 43.026 L 39.6537 43.026 Z M 33.3067 2.2769 C 30.0067 5.3559 24.4777 11.6167 23.2087 19.7156 C 22.5597 18.2146 22.1927 16.6366 22.1927 14.9807 C 22.1927 8.7448 26.9597 3.5709 33.3067 2.2769 L 33.3067 2.2769 Z M 3.8286 26.0024 C 6.7906 23.5705 10.6266 22.2245 14.6886 22.2245 C 17.6796 22.2245 20.4716 22.9755 22.8977 24.2685 C 14.0116 23.4925 6.5646 25.2264 3.8286 26.0024 Z " fill-opacity="1" fill="#ffffff" stroke="none" stroke-width="1" stroke-linecap="square" stroke-linejoin="miter"/><defs/></g><g id="obj_7" transform="matrix(1,0,0,1,43.096,43.027)" opacity="1" display="inline"><path d="M 3.441 0 L 1.072 0 C 0.479 0 0 0.4398 0 0.9835 C 0 1.5262 0.479 1.966 1.072 1.966 L 3.441 1.966 C 4.034 1.966 4.513 1.5262 4.513 0.9835 C 4.513 0.4398 4.034 0 3.441 0 Z " fill-opacity="1" fill="#ffffff" stroke="none" stroke-width="1" stroke-linecap="square" stroke-linejoin="miter"/><defs/></g></g></g></g></svg>