<?xml version="1.0" encoding="UTF-8" standalone="no"?>
<svg
   xmlns:dc="http://purl.org/dc/elements/1.1/"
   xmlns:cc="http://creativecommons.org/ns#"
   xmlns:rdf="http://www.w3.org/1999/02/22-rdf-syntax-ns#"
   xmlns:svg="http://www.w3.org/2000/svg"
   xmlns="http://www.w3.org/2000/svg"
   xmlns:sodipodi="http://sodipodi.sourceforge.net/DTD/sodipodi-0.dtd"
   xmlns:inkscape="http://www.inkscape.org/namespaces/inkscape"
   version="1.1"
   width="80"
   height="75"
   viewBox="51.176 9.706 80 75"
   id="svg2"
   inkscape:version="0.91 r13725"
   sodipodi:docname="games.svg"
   inkscape:export-filename="/home/mike/Desktop/games.png"
   inkscape:export-xdpi="90"
   inkscape:export-ydpi="90">
  <metadata
     id="metadata20">
    <rdf:RDF>
      <cc:Work
         rdf:about="">
        <dc:format>image/svg+xml</dc:format>
        <dc:type
           rdf:resource="http://purl.org/dc/dcmitype/StillImage" />
        <dc:title></dc:title>
      </cc:Work>
    </rdf:RDF>
  </metadata>
  <defs
     id="defs18" />
  <sodipodi:namedview
     pagecolor="#ffffff"
     bordercolor="#666666"
     borderopacity="1"
     objecttolerance="10"
     gridtolerance="10"
     guidetolerance="10"
     inkscape:pageopacity="0"
     inkscape:pageshadow="2"
     inkscape:window-width="1366"
     inkscape:window-height="715"
     id="namedview16"
     showgrid="false"
     inkscape:zoom="1"
     inkscape:cx="40"
     inkscape:cy="76.5"
     inkscape:window-x="0"
     inkscape:window-y="0"
     inkscape:window-maximized="1"
     inkscape:current-layer="svg2" />
  <g
     id="g4230"
     transform="matrix(2.6796418,0,0,2.6091249,24.652919,-12.124532)">
    <g
       id="Layer_1">
      <circle
         id="circle4211"
         r="14.181"
         cy="22.809"
         cx="25.131001"
         style="fill:#00c2f3" />
      <g
         id="g4213">
        <path
           id="path4215"
           d="m 35.996,18.935 -6.361,-4.753 c -0.464,-0.347 -1.016,-0.529 -1.596,-0.529 -0.843,0 -1.644,0.399 -2.146,1.071 l -0.872,1.168 c -0.478,-0.405 -1.093,-0.642 -1.739,-0.642 -0.399,0 -0.787,0.088 -1.148,0.261 l -7.161,3.435 c -1.329,0.637 -1.892,2.235 -1.255,3.564 l 3.435,7.162 c 0.441,0.922 1.39,1.516 2.417,1.516 0.399,0 0.786,-0.088 1.148,-0.26 l 5.561,-2.668 1.766,1.318 c 0.463,0.348 1.015,0.529 1.595,0.529 0.843,0 1.645,-0.398 2.146,-1.07 l 4.753,-6.361 c 0.88,-1.181 0.638,-2.859 -0.543,-3.741 z M 20.388,30.238 c -0.925,0.443 -2.109,0.016 -2.546,-0.896 l -3.436,-7.161 c -0.454,-0.95 -0.053,-2.092 0.896,-2.546 l 7.162,-3.436 c 0.258,-0.123 0.533,-0.187 0.818,-0.187 0.735,0 1.413,0.426 1.728,1.082 l 3.435,7.161 c 0.455,0.951 0.054,2.094 -0.896,2.547 l -7.161,3.436 z m 15.538,-8.019 -4.753,6.361 c -0.604,0.809 -1.858,0.994 -2.672,0.387 l -1.446,-1.08 0.824,-0.395 c 1.328,-0.637 1.892,-2.237 1.255,-3.565 l -0.381,-0.793 c 0.538,0.036 1.06,-0.271 1.264,-0.799 0.252,-0.65 -0.073,-1.379 -0.724,-1.632 -0.553,-0.213 -1.161,-0.008 -1.485,0.458 l -2.109,-4.396 c -0.047,-0.101 -0.104,-0.194 -0.163,-0.286 l 0.971,-1.299 c 0.357,-0.479 0.931,-0.765 1.533,-0.765 0.414,0 0.808,0.131 1.139,0.377 l 6.361,4.754 c 0.842,0.631 1.016,1.829 0.386,2.673 z"
           style="fill:#ffffff"
           inkscape:connector-curvature="0" />
        <circle
           id="circle4217"
           r="1.261"
           cy="27.421"
           cx="20.232"
           style="fill:#ffffff" />
        <circle
           id="circle4219"
           r="1.262"
           cy="23.327999"
           cx="21.479"
           style="fill:#ffffff" />
        <circle
           id="circle4221"
           r="1.261"
           cy="19.103001"
           cx="23.021999"
           style="fill:#ffffff" />
      </g>
    </g>
    <g
       id="Layer_2" />
  </g>
</svg>
