<svg version="1.1" width="80" height="73" viewBox="45.91 24.719 80 73" xmlns="http://www.w3.org/2000/svg" xmlns:xlink="http://www.w3.org/1999/xlink"><g xmlns="http://www.w3.org/2000/svg" id="obj_1"><g id="obj_14" transform="matrix(1,0,0,1,45.91,24.719)" opacity="1" display="inline"><g id="obj_4" transform="matrix(1,0,0,1,0,0)" opacity="1" display="inline"><path d="M 0 36.679 C 0 16.422 17.909 0 40 0 C 62.091 0 80 16.422 80 36.679 C 80 56.936 62.091 73.357 40 73.357 C 17.909 73.357 0 56.936 0 36.679 Z " fill-opacity="1" fill="#6a4897" stroke="none" stroke-width="1" stroke-linecap="square" stroke-linejoin="miter"/><defs/></g><g id="obj_5" transform="matrix(1,0,0,1,22.821,15.274)" opacity="1" display="inline"><g id="obj_6" transform="matrix(1,0,0,1,23.978,13.968)" opacity="1" display="inline"><path d="M 1.071 1.966 L 3.018 1.966 C 3.61 1.966 4.09 1.526 4.09 0.983 C 4.09 0.44 3.61 0 3.018 0 L 1.071 0 C 0.479 0 0 0.44 0 0.983 C 0 1.526 0.479 1.966 1.071 1.966 L 1.071 1.966 Z " fill-opacity="1" fill="#ffffff" stroke="none" stroke-width="1" stroke-linecap="square" stroke-linejoin="miter"/><defs/></g><g id="obj_7" transform="matrix(1,0,0,1,6.234,13.994)" opacity="1" display="inline"><path d="M 1.072 0 C 0.48 0 0 0.44 0 0.983 C 0 1.526 0.48 1.966 1.072 1.966 L 15.43 1.966 C 16.023 1.966 16.502 1.526 16.502 0.983 C 16.502 0.44 16.023 0 15.43 0 L 1.072 0 Z " fill-opacity="1" fill="#ffffff" stroke="none" stroke-width="1" stroke-linecap="square" stroke-linejoin="miter"/><defs/></g><g id="obj_8" transform="matrix(1,0,0,1,23.978,17.357)" opacity="1" display="inline"><path d="M 1.071 1.966 L 3.018 1.966 C 3.61 1.966 4.09 1.5268 4.09 0.9825 C 4.09 0.4392 3.61 0 3.018 0 L 1.071 0 C 0.479 0 0 0.4392 0 0.9825 C 0 1.5268 0.479 1.966 1.071 1.966 Z " fill-opacity="1" fill="#ffffff" stroke="none" stroke-width="1" stroke-linecap="square" stroke-linejoin="miter"/><defs/></g><g id="obj_9" transform="matrix(1,0,0,1,6.262,17.382)" opacity="1" display="inline"><path d="M 15.4301 0 L 1.0719 0 C 0.48 0 0 0.44 0 0.983 C 0 1.527 0.48 1.966 1.0719 1.966 L 15.4301 1.966 C 16.022 1.966 16.502 1.527 16.502 0.983 C 16.502 0.44 15.994 0 15.4301 0 Z " fill-opacity="1" fill="#ffffff" stroke="none" stroke-width="1" stroke-linecap="square" stroke-linejoin="miter"/><defs/></g><g id="obj_10" transform="matrix(1,0,0,1,23.978,21.237)" opacity="1" display="inline"><path d="M 1.071 1.966 L 3.018 1.966 C 3.61 1.966 4.09 1.5268 4.09 0.9825 C 4.09 0.4392 3.61 0 3.018 0 L 1.071 0 C 0.479 0 0 0.4392 0 0.9825 C 0 1.5268 0.479 1.966 1.071 1.966 Z " fill-opacity="1" fill="#ffffff" stroke="none" stroke-width="1" stroke-linecap="square" stroke-linejoin="miter"/><defs/></g><g id="obj_11" transform="matrix(1,0,0,1,6.262,21.262)" opacity="1" display="inline"><path d="M 15.4301 0 L 1.0719 0 C 0.48 0 0 0.44 0 0.983 C 0 1.527 0.48 1.966 1.0719 1.966 L 15.4301 1.966 C 16.022 1.966 16.502 1.527 16.502 0.983 C 16.502 0.44 15.994 0 15.4301 0 Z " fill-opacity="1" fill="#ffffff" stroke="none" stroke-width="1" stroke-linecap="square" stroke-linejoin="miter"/><defs/></g><g id="obj_12" transform="matrix(1,0,0,1,6.283,27.807)" opacity="1" display="inline"><path d="M 11.46 0 C 8.3009 0 4.7468 4.397 3.2518 6.518 L 1.6718 5.457 C 1.1918 5.147 0.5438 5.225 0.2047 5.664 C -0.1333 6.104 -0.0493 6.699 0.4308 7.009 L 2.9128 8.717 C 3.1108 8.846 3.3078 8.898 3.5338 8.898 C 3.5898 8.898 3.6748 8.898 3.7308 8.872 C 4.0128 8.82 4.2668 8.665 4.4358 8.432 C 6.2139 5.742 9.5699 1.94 11.46 1.94 C 12.053 1.94 12.532 1.5 12.532 0.957 C 12.532 0.414 12.053 0 11.46 0 L 11.46 0 Z " fill-opacity="1" fill="#ffffff" stroke="none" stroke-width="1" stroke-linecap="square" stroke-linejoin="miter"/><defs/></g><g id="obj_13" transform="matrix(1,0,0,1,0,0)" opacity="1" display="inline"><path d="M 33.258 0 L 7.222 0 C 6.939 0 6.686 0.104 6.46 0.285 L 0.31 5.924 C 0.113 6.105 0 6.363 0 6.622 L 0 41.826 C 0 42.369 0.48 42.809 1.072 42.809 L 33.286 42.809 C 33.879 42.809 34.358 42.369 34.358 41.826 L 34.358 0.983 C 34.302 0.44 33.851 0 33.258 0 Z M 32.186 40.843 L 2.116 40.843 L 2.116 7.062 L 7.701 7.062 L 7.701 1.94 L 32.214 1.94 L 32.214 40.843 L 32.186 40.843 Z " fill-opacity="1" fill="#ffffff" stroke="none" stroke-width="1" stroke-linecap="square" stroke-linejoin="miter"/><defs/></g></g></g></g></svg>