<?xml version="1.0" encoding="UTF-8" standalone="no"?>
<svg
   xmlns:dc="http://purl.org/dc/elements/1.1/"
   xmlns:cc="http://creativecommons.org/ns#"
   xmlns:rdf="http://www.w3.org/1999/02/22-rdf-syntax-ns#"
   xmlns:svg="http://www.w3.org/2000/svg"
   xmlns="http://www.w3.org/2000/svg"
   id="svg2"
   xml:space="preserve"
   viewBox="0 0 80 75"
   height="75"
   width="80"
   y="0px"
   x="0px"
   version="1.1"><metadata
     id="metadata26"><rdf:RDF><cc:Work
         rdf:about=""><dc:format>image/svg+xml</dc:format><dc:type
           rdf:resource="http://purl.org/dc/dcmitype/StillImage" /><dc:title></dc:title></cc:Work></rdf:RDF></metadata><defs
     id="defs24" /><g
     transform="translate(0,25)"
     id="Layer_2" /><g
     transform="matrix(2.7501587,0,0,2.6091249,-27.932218,-21.497512)"
     id="Layer_1-3"><circle
       id="circle4318"
       r="14.181"
       cy="22.872999"
       cx="24.999001"
       style="fill:#ffca28" /><path
       id="path4320"
       d="M 32.648,17.604 C 32.625,17.545 32.585,17.5 32.539,17.462 l 0,-0.002 c -0.002,-0.002 -0.004,-0.001 -0.006,-0.002 -0.057,-0.046 -0.124,-0.074 -0.197,-0.082 -0.062,-0.012 -0.114,0 -0.176,0.021 l 0,0 0,0 c -0.053,0.018 -0.109,0.021 -0.152,0.063 l -1.402,1.404 -0.735,-0.735 1.403,-1.404 0,0 c 0.035,-0.035 0.062,-0.077 0.082,-0.126 0.018,-0.044 0.024,-0.089 0.025,-0.134 0,-0.003 0.001,-0.005 0.001,-0.007 -0.001,-0.099 -0.039,-0.193 -0.108,-0.262 0,0 0,-0.001 0,-0.001 l -0.001,0 c -0.034,-0.035 -0.077,-0.063 -0.126,-0.083 -1.005,-0.402 -2.15,-0.167 -2.915,0.598 -0.511,0.51 -0.792,1.188 -0.793,1.91 0,0.262 0.049,0.514 0.12,0.758 l -6.893,6.893 c -0.916,-0.266 -1.945,-0.051 -2.668,0.671 -0.771,0.772 -1.004,1.923 -0.594,2.93 0.023,0.058 0.062,0.103 0.107,0.141 0,0 0,10e-4 0,0.002 0.002,0.002 0.006,10e-4 0.008,0.003 0.055,0.045 0.121,0.072 0.191,0.08 0.064,0.013 0.117,0.002 0.179,-0.019 0.001,-0.001 0.003,-0.001 0.003,-0.001 0.002,-10e-4 0.002,-10e-4 0.004,-0.002 0.05,-0.019 0.105,-0.02 0.146,-0.061 l 1.404,-1.403 0.735,0.735 -1.405,1.402 0,0.001 c -0.035,0.035 -0.063,0.076 -0.082,0.125 -0.018,0.044 -0.024,0.089 -0.025,0.134 0,0.003 -0.001,0.005 -0.001,0.008 0.001,0.148 0.089,0.288 0.235,0.347 0.326,0.13 0.667,0.193 1.006,0.193 0.703,0 1.395,-0.274 1.912,-0.792 0.732,-0.733 0.943,-1.784 0.656,-2.713 l 6.861,-6.863 c 0.262,0.081 0.529,0.134 0.801,0.134 0.693,0 1.386,-0.264 1.914,-0.791 0.77,-0.769 1.004,-1.918 0.595,-2.928 z M 21.291,30.233 c -0.402,0.404 -0.95,0.597 -1.499,0.563 l 1.187,-1.185 c 0.07,-0.07 0.109,-0.166 0.109,-0.266 0,-0.1 -0.039,-0.194 -0.109,-0.266 l -1.266,-1.266 c -0.146,-0.146 -0.385,-0.147 -0.531,0 l -1.218,1.217 c -0.052,-0.568 0.146,-1.142 0.564,-1.561 0.764,-0.761 2.003,-0.762 2.763,-0.001 0.762,0.765 0.762,2.005 0,2.765 z m 0.848,-2.904 C 22.046,27.193 21.943,27.061 21.823,26.94 21.692,26.809 21.551,26.695 21.402,26.597 l 6.485,-6.486 c 0.1,0.15 0.214,0.292 0.344,0.422 0.121,0.121 0.252,0.224 0.389,0.316 l -6.481,6.48 z m 9.384,-7.327 c -0.762,0.761 -2.001,0.763 -2.762,0.001 -0.37,-0.37 -0.574,-0.861 -0.573,-1.383 0.001,-0.521 0.204,-1.011 0.573,-1.379 0.402,-0.402 0.949,-0.595 1.498,-0.562 l -1.186,1.186 c -0.146,0.146 -0.146,0.384 0,0.53 l 1.266,1.266 c 0.07,0.07 0.166,0.11 0.266,0.11 0.1,0 0.195,-0.04 0.266,-0.11 l 1.217,-1.218 c 0.053,0.568 -0.147,1.141 -0.565,1.559 z"
       style="fill:#ffffff" /></g></svg>