<?xml version="1.0" encoding="UTF-8" standalone="no"?>
<svg
   xmlns:dc="http://purl.org/dc/elements/1.1/"
   xmlns:cc="http://creativecommons.org/ns#"
   xmlns:rdf="http://www.w3.org/1999/02/22-rdf-syntax-ns#"
   xmlns:svg="http://www.w3.org/2000/svg"
   xmlns="http://www.w3.org/2000/svg"
   id="svg2"
   xml:space="preserve"
   viewBox="0 0 80 75"
   height="75"
   width="80"
   y="0px"
   x="0px"
   version="1.1"><metadata
     id="metadata26"><rdf:RDF><cc:Work
         rdf:about=""><dc:format>image/svg+xml</dc:format><dc:type
           rdf:resource="http://purl.org/dc/dcmitype/StillImage" /><dc:title></dc:title></cc:Work></rdf:RDF></metadata><defs
     id="defs24" /><g
     transform="matrix(2.7276638,0,0,2.6218885,-27.689868,-22.066639)"
     id="Layer_1"><g
       id="g5"><circle
         id="circle7"
         r="14.181"
         cy="22.854"
         cx="24.999001"
         style="fill:#ed1c24" /><g
         id="g9"><path
           id="path11"
           d="m 32.635,19.468 -1.862,0 c -0.036,-0.005 -0.063,-0.005 -0.1,0 l -3.811,0 c -0.036,-0.005 -0.063,-0.005 -0.1,0 l -3.811,0 c -0.036,-0.005 -0.063,-0.005 -0.1,0 l -1.01,0 10.64,-2.068 c 0.203,-0.04 0.336,-0.236 0.297,-0.439 L 32.129,13.617 C 32.11,13.519 32.053,13.433 31.971,13.377 31.889,13.322 31.787,13.301 31.69,13.32 l -1.772,0.345 c -0.073,-0.007 -0.145,0.007 -0.209,0.041 l -3.63,0.706 c -0.072,-0.007 -0.144,0.007 -0.209,0.041 l -3.629,0.706 c -0.072,-0.007 -0.145,0.007 -0.209,0.041 l -4.738,0.921 c -0.203,0.04 -0.336,0.236 -0.297,0.439 l 0.618,3.184 c -0.01,0.033 -0.021,0.066 -0.021,0.102 l 0,3.407 c 0,0.001 10e-4,0.003 10e-4,0.005 l 0,6.769 c 0,1.308 1.063,2.371 2.37,2.371 l 10.675,0 c 1.307,0 2.37,-1.063 2.37,-2.371 l 0,-6.777 0,-0.492 0,-2.915 c 0,-0.207 -0.168,-0.375 -0.375,-0.375 z m -0.375,3.29 0,0.117 -4.059,0 2.656,-2.657 1.402,0 0,2.54 z m -7.969,0.117 2.656,-2.657 2.849,0 -2.657,2.657 -2.848,0 z m -3.91,0 2.656,-2.657 2.85,0 -2.656,2.657 -2.85,0 z m -2.036,0 0,-0.023 c 0,-0.001 -10e-4,-0.003 -10e-4,-0.005 l 0,-2.628 3.633,0 -2.656,2.657 -0.976,0 z m 6.864,-7.532 -2.102,3.115 -2.798,0.544 2.102,-3.115 2.798,-0.544 z m 3.837,-0.746 -2.101,3.115 -2.798,0.544 2.101,-3.115 2.798,-0.544 z m 2.925,2.139 -3.985,0.774 2.101,-3.115 1.378,-0.268 0.506,2.609 z M 21.37,16.089 19.268,19.205 18.31,19.391 17.803,16.783 21.37,16.089 Z m 9.27,15.556 -10.675,0 c -0.894,0 -1.62,-0.727 -1.62,-1.621 l 0,-6.399 13.915,0 0,6.399 c 0,0.894 -0.727,1.621 -1.62,1.621 z"
           style="fill:#ffffff" /><path
           id="path13"
           d="m 30.219,26.802 -0.688,0 c -0.207,0 -0.375,0.168 -0.375,0.375 0,0.207 0.168,0.375 0.375,0.375 l 0.688,0 c 0.207,0 0.375,-0.168 0.375,-0.375 0,-0.207 -0.168,-0.375 -0.375,-0.375 z"
           style="fill:#ffffff" /><path
           id="path15"
           d="m 27.938,26.802 -7.719,0 c -0.207,0 -0.375,0.168 -0.375,0.375 0,0.207 0.168,0.375 0.375,0.375 l 7.719,0 c 0.207,0 0.375,-0.168 0.375,-0.375 0,-0.207 -0.168,-0.375 -0.375,-0.375 z"
           style="fill:#ffffff" /><path
           id="path17"
           d="m 30.219,28.833 -0.688,0 c -0.207,0 -0.375,0.168 -0.375,0.375 0,0.207 0.168,0.375 0.375,0.375 l 0.688,0 c 0.207,0 0.375,-0.168 0.375,-0.375 0,-0.207 -0.168,-0.375 -0.375,-0.375 z"
           style="fill:#ffffff" /><path
           id="path19"
           d="m 27.938,28.833 -7.719,0 c -0.207,0 -0.375,0.168 -0.375,0.375 0,0.207 0.168,0.375 0.375,0.375 l 7.719,0 c 0.207,0 0.375,-0.168 0.375,-0.375 0,-0.207 -0.168,-0.375 -0.375,-0.375 z"
           style="fill:#ffffff" /></g></g></g><g
     transform="translate(0,25)"
     id="Layer_2" /></svg>