<?xml version="1.0" encoding="utf-8"?>
<!-- Generator: Adobe Illustrator 16.0.0, SVG Export Plug-In . SVG Version: 6.00 Build 0)  -->
<!DOCTYPE svg PUBLIC "-//W3C//DTD SVG 1.1//EN" "http://www.w3.org/Graphics/SVG/1.1/DTD/svg11.dtd">
<svg version="1.1" xmlns="http://www.w3.org/2000/svg" xmlns:xlink="http://www.w3.org/1999/xlink" x="0px" y="0px" width="97.5px"
	 height="45.69px" viewBox="0 0 97.5 45.69" enable-background="new 0 0 97.5 45.69" xml:space="preserve">
<g id="Layer_2_2_">
</g>
<g id="Layer_3_5_">
</g>
<g id="Layer_4_2_">
</g>
<g id="Layer_5_2_">
</g>
<g id="Layer_1">
	<g>
		<g>
			<path fill="#00B3F0" d="M4.557,32.601c-0.529-0.651-0.794-1.189-0.794-1.618c0-0.611,0.438-1.344,1.314-2.198
				c0.508-0.487,1.016-0.733,1.526-0.733c0.63,0,1.403,0.46,2.32,1.374l0.152,0.155c0.08,0.102,0.203,0.234,0.365,0.397
				c0.162,0.162,0.478,0.378,0.947,0.656c0.467,0.272,0.926,0.413,1.373,0.413c1.894,0,2.839-0.775,2.839-2.321
				c0-0.47-0.26-0.861-0.777-1.175c-0.52-0.316-1.165-0.545-1.938-0.688c-0.773-0.142-1.609-0.371-2.504-0.686
				c-0.896-0.316-1.729-0.688-2.504-1.116s-1.419-1.103-1.938-2.03C4.421,22.104,4.16,20.99,4.16,19.688
				c0-1.792,0.665-3.354,1.999-4.689c1.334-1.332,3.151-2,5.45-2c1.222,0,2.335,0.159,3.344,0.474
				c1.007,0.316,1.704,0.636,2.093,0.962l0.608,0.457l0.153,0.121c0.63,0.592,0.946,1.081,0.946,1.466c0,0.427-0.244,1-0.733,1.709
				c-0.692,1.02-1.404,1.528-2.137,1.528c-0.429,0-0.956-0.203-1.588-0.61c-0.061-0.041-0.178-0.143-0.352-0.307
				c-0.173-0.161-0.33-0.29-0.472-0.38c-0.142-0.091-0.384-0.184-0.719-0.274c-0.334-0.093-0.727-0.137-1.176-0.137
				c-0.486,0-0.95,0.156-1.388,0.472s-0.656,0.729-0.656,1.237c0,0.612,0.259,1.089,0.778,1.434c0.52,0.348,1.164,0.581,1.938,0.703
				c0.773,0.122,1.618,0.311,2.532,0.565c0.918,0.254,1.762,0.564,2.536,0.93c0.773,0.369,1.419,1.005,1.938,1.909
				c0.52,0.907,0.777,2.029,0.777,3.374c0,1.303-0.264,2.457-0.793,3.467c-0.53,1.006-1.217,1.783-2.059,2.335
				c-0.847,0.549-1.718,0.957-2.613,1.221c-0.896,0.265-1.792,0.397-2.686,0.397c-0.959,0-1.862-0.117-2.718-0.351
				c-0.855-0.236-1.551-0.519-2.09-0.854c-0.539-0.338-1.008-0.678-1.406-1.023c-0.396-0.346-0.676-0.641-0.839-0.884L4.557,32.601z
				"/>
			<path fill="#00B3F0" d="M34.505,19.656c0.632,0,1.13,0.062,1.497,0.185c0.364,0.121,0.624,0.33,0.777,0.625
				c0.153,0.296,0.244,0.554,0.274,0.778c0.031,0.224,0.047,0.571,0.047,1.039v17.83c0,0.47-0.016,0.815-0.047,1.039
				c-0.03,0.223-0.121,0.477-0.274,0.762c-0.153,0.288-0.417,0.49-0.794,0.612c-0.376,0.122-0.88,0.184-1.51,0.184
				c-0.632,0-1.132-0.062-1.498-0.184c-0.364-0.123-0.623-0.331-0.776-0.626c-0.153-0.295-0.245-0.554-0.275-0.778
				c-0.03-0.226-0.046-0.571-0.046-1.039v-6.167c-0.815,0.937-1.965,1.404-3.449,1.404c-1.813,0-3.451-0.783-4.916-2.351
				c-1.467-1.567-2.2-3.409-2.2-5.524c0-2.037,0.743-3.838,2.229-5.405c1.487-1.568,3.115-2.351,4.888-2.351
				c1.546,0,2.704,0.529,3.479,1.585c0.062-0.528,0.28-0.929,0.656-1.205C32.943,19.795,33.59,19.656,34.505,19.656z M27.315,29.336
				c0.52,0.529,1.144,0.792,1.878,0.792c0.732,0,1.342-0.268,1.831-0.81c0.489-0.538,0.733-1.134,0.733-1.784
				c0-0.631-0.234-1.228-0.703-1.787c-0.469-0.562-1.1-0.84-1.895-0.84c-0.771,0-1.402,0.268-1.891,0.807
				c-0.488,0.542-0.732,1.146-0.732,1.819C26.537,28.205,26.797,28.806,27.315,29.336z"/>
			<path fill="#00B3F0" d="M45.699,35.686c-2.056,0-3.761-0.778-5.114-2.337c-1.354-1.555-2.029-3.453-2.029-5.69v-5.346
				c0-0.487,0.014-0.844,0.044-1.068c0.03-0.224,0.123-0.487,0.275-0.793c0.152-0.305,0.422-0.52,0.809-0.64
				c0.388-0.122,0.906-0.185,1.558-0.185c0.529,0,0.966,0.05,1.312,0.153c0.345,0.101,0.611,0.226,0.794,0.367
				c0.185,0.141,0.321,0.351,0.412,0.626c0.092,0.273,0.144,0.509,0.153,0.7c0.01,0.194,0.016,0.485,0.016,0.872v5.342
				c0,0.835,0.238,1.487,0.718,1.953c0.478,0.47,1.124,0.704,1.939,0.704c0.795,0,1.438-0.244,1.938-0.733
				c0.498-0.487,0.748-1.131,0.748-1.923v-5.404c0-0.468,0.017-0.821,0.046-1.054s0.12-0.499,0.273-0.792
				c0.154-0.295,0.423-0.505,0.811-0.625c0.387-0.122,0.906-0.185,1.557-0.185c0.63,0,1.139,0.063,1.526,0.185
				c0.387,0.121,0.657,0.335,0.81,0.64c0.153,0.306,0.244,0.573,0.274,0.808c0.029,0.235,0.046,0.586,0.046,1.053v10.809
				c0,0.45-0.017,0.79-0.046,1.024c-0.03,0.233-0.126,0.494-0.29,0.778c-0.162,0.285-0.438,0.489-0.823,0.611
				c-0.388,0.122-0.895,0.184-1.527,0.184c-0.609,0-1.11-0.062-1.495-0.184c-0.388-0.122-0.652-0.305-0.796-0.55
				c-0.143-0.246-0.228-0.447-0.259-0.611c-0.031-0.162-0.046-0.375-0.046-0.641c-0.041,0.062-0.098,0.132-0.168,0.213
				c-0.07,0.083-0.224,0.234-0.458,0.458c-0.233,0.226-0.484,0.422-0.748,0.597c-0.264,0.173-0.601,0.33-1.009,0.471
				C46.544,35.615,46.127,35.686,45.699,35.686z"/>
			<path fill="#00B3F0" d="M69.661,19.656c0.631,0,1.14,0.062,1.526,0.185c0.388,0.121,0.656,0.334,0.81,0.64
				c0.153,0.307,0.243,0.576,0.272,0.81c0.033,0.234,0.047,0.584,0.047,1.054v10.685c0,0.469-0.014,0.819-0.047,1.052
				c-0.029,0.236-0.119,0.5-0.272,0.796c-0.153,0.295-0.422,0.503-0.81,0.625c-0.387,0.122-0.907,0.182-1.558,0.182
				c-0.916,0-1.562-0.137-1.938-0.411c-0.377-0.274-0.596-0.677-0.657-1.207c-0.754,1.078-1.975,1.618-3.664,1.618
				c-1.832,0-3.501-0.803-5.007-2.411c-1.507-1.608-2.26-3.492-2.26-5.65c0-2.095,0.759-3.944,2.274-5.542
				c1.517-1.598,3.181-2.395,4.992-2.395c0.691,0,1.323,0.122,1.893,0.365c0.569,0.244,0.967,0.473,1.191,0.687
				s0.407,0.425,0.549,0.626c0.062-0.57,0.279-0.996,0.656-1.282C68.037,19.8,68.705,19.656,69.661,19.656z M64.197,30.343
				c0.73,0,1.346-0.276,1.846-0.826c0.499-0.549,0.749-1.161,0.749-1.831c0-0.65-0.241-1.262-0.719-1.831
				c-0.479-0.571-1.125-0.854-1.938-0.854c-0.793,0-1.441,0.283-1.939,0.854c-0.498,0.569-0.748,1.19-0.748,1.861
				c0,0.673,0.266,1.278,0.795,1.816C62.771,30.075,63.423,30.343,64.197,30.343z"/>
		</g>
		<g>
			<path fill="#00B3F0" d="M92.661,15.255l-0.021,12.177c0.011,0.187,0.021,0.374,0.021,0.563c0,4.377-3.178,8.009-7.353,8.722
				c-0.225,0.342-0.482,0.72-0.767,1.094c-0.201,0.267-0.626,0.2-0.626,0.541c0,0.342,0.213,1.792,0.477,1.941
				s2.814,0.47,2.945,0.706c0.142,0.261-1.559-0.194-1.63-0.002c-0.071,0.191,1.431,0.529,1.21,0.686
				c-0.222,0.156-2.128-0.47-2.537-0.497c-0.413-0.025-1.423-0.045-1.432-0.133c-0.014-0.166,0.859-0.376,0.859-0.623
				c-0.001-0.249-0.604-1.396-0.859-2.051c-0.162-0.416,0.048-0.869,0.131-1.565c-0.956-0.079-1.868-0.304-2.714-0.662
				c-0.213,0.482-0.632,1.335-1.22,2.114c-0.201,0.267-0.626,0.2-0.626,0.542c0,0.341,0.213,1.792,0.476,1.941
				c0.264,0.148,2.569,0.383,2.698,0.619c0.145,0.261-1.261-0.19-1.384,0.084c-0.054,0.128,1.078,0.41,0.856,0.566
				s-1.815-0.406-2.358-0.512c-0.253-0.05-1.114,0.072-1.234-0.043c-0.123-0.114,0.597-0.372,0.804-0.512
				c0.206-0.139-0.57-1.461-0.824-2.117c-0.244-0.62,0.687-2.541,0.471-4.143c-1.877-1.623-3.066-4.021-3.066-6.696
				c0-0.792,0.104-1.558,0.3-2.288c-0.766-0.379-1.685-2.088-1.339-3.363c0.268,0.182,0.8,0.202,1.051,0.014
				c-0.654-0.062-1.051-0.414-1.051-0.958c1.482,0.932,4.848-0.681,4.848-0.681l0,0c1.432-0.994,3.168-1.578,5.042-1.578
				c0.292,0,0.58,0.015,0.863,0.042c0.832-0.165,0.195-2.261,0.118-2.5c-0.023-0.064-0.046-0.126-0.067-0.19
				c-0.605,0.062-1.07,0.594-1.148,0.344c-0.269-1.76,0.83-2.594,1.02-2.724c0.181-0.731,0.553-1.386,1.064-1.904
				c0.303-0.821,1.042-2.573,1.579-1.688c0.691,1.138,1.125-1.191,1.724-0.223c0.693,1.126,1.228,0.084,1.603,0.699
				c0.089,0.149,0.094,0.352,0.058,0.558c1.22,0.709,2.04,2.026,2.04,3.537c0,0.057-0.007,0.112-0.01,0.167L92.661,15.255z
				 M85.842,25.602c-0.846-0.449-1.81-0.448-2.622-0.086v-0.001c0,0-0.526,0.799-1.771,0.385c-1.944-0.645-1.086,4.698,2.189,5.264
				c0.043,0.009,0.088,0.014,0.134,0.021c0.038,0.004,0.077,0.012,0.116,0.017c0.093,0.009,0.185,0.015,0.276,0.016
				c0.017,0.001,0.032,0.003,0.046,0.003v0c1.067-0.002,2.097-0.576,2.634-1.582C87.618,28.183,87.295,26.378,85.842,25.602z"/>
			<path fill="#FFFFFF" d="M88.031,14.29c0,0,0.856-1.148,1.86-0.497C89.892,14.646,89.272,15.392,88.031,14.29z"/>
		</g>
		<g>
			<path fill="#00B3F0" d="M34.905,16.531h-2.772l-0.897-2.676h-5.237l-0.896,2.676h-2.772l4.835-12.729h2.905L34.905,16.531z
				 M28.617,5.943l-1.912,5.792h3.823L28.617,5.943z"/>
			<path fill="#00B3F0" d="M35.714,16.531V7.224h2.522v1.261c0.306-0.497,0.694-0.863,1.166-1.099
				c0.471-0.235,0.987-0.353,1.548-0.353c0.598,0,1.111,0.127,1.539,0.382c0.426,0.255,0.772,0.596,1.041,1.023
				c0.268,0.427,0.465,0.923,0.593,1.491c0.127,0.567,0.191,1.156,0.191,1.768v4.835h-2.619v-4.855c0-0.84-0.131-1.478-0.391-1.911
				c-0.263-0.433-0.693-0.65-1.292-0.65c-0.382,0-0.712,0.089-0.992,0.268c-0.281,0.179-0.511,0.389-0.688,0.63v6.518H35.714z"/>
			<path fill="#00B3F0" d="M45.697,4.51c0-0.421,0.138-0.777,0.419-1.07C46.396,3.146,46.76,3,47.205,3
				c0.447,0,0.812,0.146,1.102,0.44c0.284,0.292,0.428,0.649,0.428,1.07c0,0.407-0.144,0.761-0.428,1.06
				C48.018,5.87,47.652,6.02,47.205,6.02c-0.445,0-0.809-0.15-1.089-0.449C45.835,5.271,45.697,4.917,45.697,4.51z M45.906,16.531
				V7.224h2.618v9.308H45.906z"/>
			<path fill="#00B3F0" d="M60.322,9.116c-0.407,0-0.761,0.115-1.062,0.344c-0.298,0.229-0.537,0.472-0.716,0.727
				c0.038,0.229,0.07,0.475,0.096,0.736c0.024,0.261,0.038,0.519,0.038,0.774v4.835h-2.618v-4.855c0-0.866-0.121-1.509-0.361-1.93
				c-0.244-0.421-0.652-0.631-1.225-0.631c-0.396,0-0.724,0.089-0.984,0.268c-0.262,0.179-0.48,0.389-0.659,0.63v6.518h-2.618V7.224
				h2.522v1.261c0.306-0.497,0.694-0.863,1.166-1.099c0.471-0.235,0.987-0.353,1.547-0.353c0.649,0,1.186,0.146,1.606,0.439
				c0.419,0.293,0.758,0.682,1.013,1.166c0.421-0.586,0.893-1,1.415-1.242c0.521-0.242,1.106-0.363,1.758-0.363
				c0.599,0,1.105,0.118,1.52,0.353c0.413,0.236,0.751,0.564,1.013,0.985c0.261,0.42,0.452,0.915,0.573,1.481
				c0.12,0.567,0.18,1.182,0.18,1.844v4.835h-2.617v-4.855c0-0.866-0.122-1.509-0.362-1.93C61.305,9.326,60.896,9.116,60.322,9.116z
				"/>
			<path fill="#00B3F0" d="M71.242,15.537c-0.344,0.331-0.76,0.611-1.242,0.841c-0.485,0.229-1.045,0.344-1.684,0.344
				c-0.407,0-0.776-0.067-1.107-0.202c-0.332-0.133-0.61-0.317-0.841-0.553c-0.229-0.236-0.407-0.513-0.536-0.831
				c-0.127-0.319-0.19-0.669-0.19-1.052c0-0.854,0.287-1.503,0.859-1.95c0.574-0.445,1.357-0.7,2.352-0.764
				c0.382-0.025,0.777-0.045,1.185-0.058c0.408-0.013,0.777-0.026,1.109-0.038V10.95c0-0.599-0.147-1.054-0.44-1.366
				c-0.294-0.312-0.753-0.468-1.376-0.468c-0.485,0-0.942,0.057-1.376,0.172c-0.433,0.114-0.815,0.261-1.146,0.439l-0.517-1.835
				c0.484-0.28,1.02-0.494,1.606-0.64c0.586-0.146,1.216-0.22,1.892-0.22c1.236,0,2.207,0.337,2.914,1.013
				c0.707,0.675,1.062,1.675,1.062,3v5.485h-2.522V15.537z M69.273,14.944c0.369,0,0.713-0.063,1.032-0.191
				c0.317-0.127,0.599-0.287,0.841-0.478v-1.471c-0.269,0.025-0.555,0.05-0.861,0.076c-0.305,0.026-0.587,0.058-0.841,0.096
				c-0.382,0.063-0.687,0.169-0.918,0.315c-0.228,0.146-0.341,0.392-0.341,0.736c0,0.305,0.098,0.535,0.294,0.688
				C68.678,14.869,68.941,14.944,69.273,14.944z"/>
			<path fill="#00B3F0" d="M77.842,13.836c0,0.292,0.06,0.513,0.182,0.659c0.121,0.147,0.327,0.221,0.62,0.221
				c0.115,0,0.236-0.007,0.363-0.02c0.128-0.012,0.248-0.031,0.362-0.057l0.097,1.835c-0.218,0.063-0.484,0.117-0.803,0.162
				c-0.317,0.044-0.63,0.067-0.937,0.067c-0.472,0-0.866-0.074-1.185-0.22c-0.319-0.146-0.578-0.344-0.774-0.592
				c-0.199-0.249-0.337-0.528-0.42-0.841c-0.084-0.312-0.123-0.633-0.123-0.965V3.039h2.617V13.836z"/>
		</g>
	</g>
</g>
</svg>
